<svg xmlns="http://www.w3.org/2000/svg" width="33" height="32" fill="none"><path fill="#11100E" d="M13.526 8.707v7.154l-2.718 2.94h2.718v5.767S9.089 27.23 10.642 32c0 0 .943-3.993 5.213-4.437V8.707h-2.33Zm4.16 16.195v-6.1l2.662-2.94h-2.662V8.765h-1.054v20.409c5.878-1.83 5.157-6.988 5.157-6.988-1.719 3.106-4.103 2.717-4.103 2.717Z"/><path fill="#11100E" d="M24.285 5.435C26.836 3.438 26.67 0 26.67 0c-1.11 3.272-4.437 3.938-6.378 3.993h-10.26c-1.664 0-3.328.666-4.492 1.886-1.442 1.553-2.33 4.215.388 8.43 0 0-.666-3.994 1.996-5.713.666-.443 1.442-.61 2.219-.61H27.39l-3.106-2.551Z"/></svg>