<?xml version="1.0" encoding="UTF-8" standalone="no" ?>
<!DOCTYPE svg PUBLIC "-//W3C//DTD SVG 1.1//EN" "http://www.w3.org/Graphics/SVG/1.1/DTD/svg11.dtd">
<svg xmlns="http://www.w3.org/2000/svg" xmlns:xlink="http://www.w3.org/1999/xlink" version="1.1" width="1280" height="1024" viewBox="0 0 1280 1024" xml:space="preserve">
<desc>Created with Fabric.js 5.3.0</desc>
<defs>
</defs>
<g transform="matrix(1 0 0 1 640 512)" id="background-logo"  >
<rect style="stroke: none; stroke-width: 0; stroke-dasharray: none; stroke-linecap: butt; stroke-dashoffset: 0; stroke-linejoin: miter; stroke-miterlimit: 4; fill: rgb(255,255,255); fill-opacity: 0; fill-rule: nonzero; opacity: 1;"  paint-order="stroke"  x="-640" y="-512" rx="0" ry="0" width="1280" height="1024" />
</g>
<g transform="matrix(1.9211538461538462 0 0 1.9211538461538462 640 404.97300865145445)" id="logo-logo"  >
<g style=""  paint-order="stroke"   >
		<g transform="matrix(3.327342922417193 0 0 3.327342922417193 -16.174207197388967 26.11964194097456)"  >
<path style="stroke: none; stroke-width: 1; stroke-dasharray: none; stroke-linecap: butt; stroke-dashoffset: 0; stroke-linejoin: miter; stroke-miterlimit: 4; fill: rgb(255,255,255); fill-rule: nonzero; opacity: 1;"  paint-order="stroke"  transform=" translate(1847.4972385694887, 724.1000000000001)" d="M -1846.7 -745.1 L -1846.7 -732.2 L -1851.6000000000001 -726.9000000000001 L -1846.7 -726.9000000000001 L -1846.7 -716.5000000000001 C -1846.7 -716.5000000000001 -1854.7 -711.7000000000002 -1851.9 -703.1000000000001 C -1851.9 -703.1000000000001 -1850.2 -710.3000000000002 -1842.5 -711.1000000000001 L -1842.5 -745.1000000000001 L -1846.7 -745.1 L -1846.7 -745.1 z" stroke-linecap="round" />
</g>
		<g transform="matrix(3.327342922417193 0 0 3.327342922417193 20.6676531023013 17.801284634932358)"  >
<path style="stroke: none; stroke-width: 1; stroke-dasharray: none; stroke-linecap: butt; stroke-dashoffset: 0; stroke-linejoin: miter; stroke-miterlimit: 4; fill: rgb(255,255,255); fill-rule: nonzero; opacity: 1;"  paint-order="stroke"  transform=" translate(1836.4247819100092, 726.5999999999999)" d="M -1839.2 -715.9 L -1839.2 -726.9 L -1834.4 -732.1999999999999 L -1839.2 -732.1999999999999 L -1839.2 -744.9999999999999 L -1841.1000000000001 -744.9999999999999 L -1841.1000000000001 -708.1999999999999 C -1830.5000000000002 -711.4999999999999 -1831.8000000000002 -720.8 -1831.8000000000002 -720.8 C -1834.9 -715.2 -1839.2 -715.9 -1839.2 -715.9 z" stroke-linecap="round" />
</g>
		<g transform="matrix(3.327342922417193 0 0 3.327342922417193 0 -53.0711196125537)"  >
<path style="stroke: none; stroke-width: 1; stroke-dasharray: none; stroke-linecap: butt; stroke-dashoffset: 0; stroke-linejoin: miter; stroke-miterlimit: 4; fill: rgb(255,255,255); fill-rule: nonzero; opacity: 1;"  paint-order="stroke"  transform=" translate(1842.636240597678, 747.8999999999999)" d="M -1827.3 -751 C -1822.7 -754.6 -1823 -760.8 -1823 -760.8 C -1825 -754.9 -1831 -753.6999999999999 -1834.5 -753.5999999999999 L -1853 -753.5999999999999 C -1856 -753.5999999999999 -1859 -752.3999999999999 -1861.1 -750.1999999999999 C -1863.6999999999998 -747.4 -1865.3 -742.5999999999999 -1860.3999999999999 -734.9999999999999 C -1860.3999999999999 -734.9999999999999 -1861.6 -742.1999999999999 -1856.8 -745.2999999999998 C -1855.6 -746.0999999999998 -1854.2 -746.3999999999999 -1852.8 -746.3999999999999 L -1821.7 -746.3999999999999 L -1827.3 -751 z" stroke-linecap="round" />
</g>
</g>
</g>
<g transform="matrix(1.9211538461538462 0 0 1.9211538461538462 640.0528317307691 661.8883462681059)" id="text-logo"  >
<g style=""  paint-order="stroke"   >
		<g transform="matrix(1 0 0 1 0 0)" id="text-logo-path-0"  >
<path style="stroke: none; stroke-width: 0; stroke-dasharray: none; stroke-linecap: butt; stroke-dashoffset: 0; stroke-linejoin: miter; stroke-miterlimit: 4; fill: rgb(255,255,255); fill-rule: nonzero; opacity: 1;"  paint-order="stroke"  transform=" translate(-156.365, 22)" d="M 21.45 -38.5 L 1.65 -38.5 L 1.65 -31.18 L 2.64 -31.9 L 8.25 -31.9 L 8.25 -0.99 L 7.54 0 L 15.56 0 L 14.85 -0.99 L 14.85 -31.9 L 20.46 -31.9 L 21.45 -31.18 Z M 56.87 -0.99 L 49.61 -37.51 L 50.11 -38.5 L 42.08 -38.5 L 42.57 -37.51 L 35.31 -0.99 L 34.38 0 L 42.41 0 L 41.91 -0.99 L 42.68 -4.9 L 48.84 -8.14 L 50.27 -0.99 L 49.77 0 L 57.8 0 Z M 44.16 -12.27 L 46.09 -21.95 L 47.63 -14.13 Z M 89.98 -38.5 L 70.18 -38.5 L 70.18 -31.18 L 71.17 -31.9 L 76.78 -31.9 L 76.78 -0.99 L 76.06 0 L 84.09 0 L 83.38 -0.99 L 83.38 -31.9 L 88.99 -31.9 L 89.98 -31.18 Z M 107.31 -37.51 L 107.31 -9.35 C 107.31 -3.9 111.76 0.55 117.2 0.55 C 122.65 0.55 127.11 -3.9 127.11 -9.35 L 127.11 -37.51 L 127.82 -38.5 L 119.79 -38.5 L 120.5 -37.51 L 120.5 -9.35 C 120.5 -7.09 119.46 -6.05 117.2 -6.05 C 114.95 -6.05 113.91 -7.09 113.91 -9.35 L 113.91 -37.51 L 114.62 -38.5 L 106.59 -38.5 Z M 112.25 -40.15 L 122.16 -40.15 L 122.16 -44.55 L 112.25 -44.55 Z M 144.43 -37.51 L 144.43 -0.99 L 143.72 0 L 162.58 0 L 162.58 -7.32 L 161.59 -6.6 L 151.03 -6.6 L 151.03 -37.51 L 151.75 -38.5 L 143.72 -38.5 Z M 179.91 -29.15 L 179.91 -9.35 C 179.91 -3.9 184.36 0.55 189.81 0.55 C 195.25 0.55 199.7 -3.9 199.7 -9.35 L 199.7 -29.15 C 199.7 -34.59 195.25 -39.05 189.81 -39.05 C 184.36 -39.05 179.91 -34.59 179.91 -29.15 Z M 186.5 -9.35 L 186.5 -29.15 C 186.5 -31.41 187.55 -32.45 189.81 -32.45 C 192.06 -32.45 193.1 -31.41 193.1 -29.15 L 193.1 -9.35 C 193.1 -7.09 192.06 -6.05 189.81 -6.05 C 187.55 -6.05 186.5 -7.09 186.5 -9.35 Z M 217.03 -29.15 L 217.03 -9.35 C 217.03 -3.9 221.48 0.55 226.93 0.55 C 232.38 0.55 236.83 -3.9 236.83 -9.35 L 236.83 -23.76 L 226.93 -18.48 L 226.93 -11.88 L 230.23 -13.64 L 230.23 -9.35 C 230.23 -7.09 229.19 -6.05 226.93 -6.05 C 224.67 -6.05 223.63 -7.09 223.63 -9.35 L 223.63 -29.15 C 223.63 -31.41 224.67 -32.45 226.93 -32.45 C 229.19 -32.45 230.23 -31.41 230.23 -29.15 L 230.23 -25.85 L 236.83 -29.15 C 236.83 -34.59 232.38 -39.05 226.93 -39.05 C 221.48 -39.05 217.03 -34.59 217.03 -29.15 Z M 254.16 -37.51 L 254.16 -9.35 C 254.16 -3.9 258.61 0.55 264.06 0.55 C 269.5 0.55 273.95 -3.9 273.95 -9.35 L 273.95 -37.51 L 274.67 -38.5 L 266.64 -38.5 L 267.36 -37.51 L 267.36 -9.35 C 267.36 -7.09 266.31 -6.05 264.06 -6.05 C 261.8 -6.05 260.75 -7.09 260.75 -9.35 L 260.75 -37.51 L 261.47 -38.5 L 253.44 -38.5 Z M 291.28 -37.51 L 291.28 -0.99 L 290.56 0 L 311.08 0 L 311.08 -13.64 L 304.48 -10.12 L 304.48 -6.6 L 297.88 -6.6 L 297.88 -11.99 L 304.48 -15.51 L 304.48 -22.11 L 297.88 -18.59 L 297.88 -31.9 L 304.48 -31.9 L 304.48 -28.38 L 311.08 -31.9 L 311.08 -38.5 L 290.56 -38.5 Z" stroke-linecap="round" />
</g>
</g>
</g>
<g transform="matrix(1.9211538461538462 0 0 1.9211538461538462 638.6964971153845 767.0667548834904)" id="tagline-934713ce-4620-4c87-9d91-b1c7785a587c-logo"  >
<g style=""  paint-order="stroke"   >
		<g transform="matrix(1 0 0 1 0 0)" id="tagline-934713ce-4620-4c87-9d91-b1c7785a587c-logo-path-0"  >
<path style="stroke: none; stroke-width: 0; stroke-dasharray: none; stroke-linecap: butt; stroke-dashoffset: 0; stroke-linejoin: miter; stroke-miterlimit: 4; fill: rgb(255,255,255); fill-rule: nonzero; opacity: 1;"  paint-order="stroke"  transform=" translate(-316.72, 8.049999999999999)" d="M 3.15 -6.67 L 3.15 0 L 5.68 0 L 5.68 -6.67 L 8.9 -16.1 L 6.14 -16.1 L 4.42 -9.66 L 2.69 -16.1 L -0.07 -16.1 Z M 20.81 -11.82 L 20.81 -4.28 C 20.81 -1.66 22.61 0.23 25.35 0.23 C 27.97 0.23 29.85 -1.56 29.85 -4.28 L 29.85 -11.82 C 29.85 -14.44 28.06 -16.33 25.35 -16.33 C 22.72 -16.33 20.81 -14.58 20.81 -11.82 Z M 23.34 -4.28 L 23.34 -11.82 C 23.34 -13.29 23.9 -13.8 25.35 -13.8 C 26.79 -13.8 27.32 -13.25 27.32 -11.82 L 27.32 -4.28 C 27.32 -2.83 26.77 -2.3 25.35 -2.3 C 23.87 -2.3 23.34 -2.85 23.34 -4.28 Z M 43.15 -16.1 L 43.15 -4.28 C 43.15 -1.66 44.94 0.23 47.68 0.23 C 50.3 0.23 52.19 -1.56 52.19 -4.28 L 52.19 -16.1 L 49.66 -16.1 L 49.66 -4.28 C 49.66 -2.83 49.1 -2.3 47.68 -2.3 C 46.21 -2.3 45.68 -2.85 45.68 -4.28 L 45.68 -16.1 Z M 70.2 -16.1 L 65.69 -16.1 L 65.69 0 L 68.22 0 L 68.22 -7.04 L 70.2 -7.04 C 71.64 -7.04 72.2 -6.51 72.2 -5.04 L 72.2 0 L 74.73 0 L 74.73 -5.04 C 74.73 -6.39 74.27 -7.52 73.46 -8.3 C 74.27 -9.11 74.73 -10.26 74.73 -11.57 C 74.73 -14.31 72.84 -16.1 70.2 -16.1 Z M 68.22 -9.57 L 68.22 -13.57 L 70.2 -13.57 C 71.64 -13.57 72.2 -13.04 72.2 -11.57 C 72.2 -10.14 71.64 -9.57 70.2 -9.57 Z M 112.49 -16.1 L 103.52 -16.1 L 103.52 -13.57 L 106.74 -13.57 L 106.74 0 L 109.27 0 L 109.27 -13.57 L 112.49 -13.57 Z M 126.22 -16.1 L 123.46 0 L 125.99 0 L 126.27 -1.61 L 129.7 -1.61 L 129.97 0 L 132.5 0 L 129.74 -16.1 Z M 126.71 -4.14 L 127.99 -11.62 L 129.26 -4.14 Z M 152.6 -16.1 L 143.63 -16.1 L 143.63 -13.57 L 146.85 -13.57 L 146.85 0 L 149.38 0 L 149.38 -13.57 L 152.6 -13.57 Z M 173.49 -16.1 L 164.52 -16.1 L 164.52 -13.57 L 167.74 -13.57 L 167.74 0 L 170.27 0 L 170.27 -13.57 L 173.49 -13.57 Z M 185.52 -11.82 L 185.52 -4.28 C 185.52 -1.66 187.31 0.23 190.05 0.23 C 192.67 0.23 194.56 -1.56 194.56 -4.28 L 194.56 -11.82 C 194.56 -14.44 192.76 -16.33 190.05 -16.33 C 187.43 -16.33 185.52 -14.58 185.52 -11.82 Z M 188.05 -4.28 L 188.05 -11.82 C 188.05 -13.29 188.6 -13.8 190.05 -13.8 C 191.5 -13.8 192.03 -13.25 192.03 -11.82 L 192.03 -4.28 C 192.03 -2.83 191.47 -2.3 190.05 -2.3 C 188.58 -2.3 188.05 -2.85 188.05 -4.28 Z M 207.71 -11.82 L 207.71 -4.28 C 207.71 -1.66 209.51 0.23 212.24 0.23 C 214.87 0.23 216.75 -1.56 216.75 -4.28 L 216.75 -11.82 C 216.75 -14.44 214.96 -16.33 212.24 -16.33 C 209.62 -16.33 207.71 -14.58 207.71 -11.82 Z M 210.24 -4.28 L 210.24 -11.82 C 210.24 -13.29 210.79 -13.8 212.24 -13.8 C 213.69 -13.8 214.22 -13.25 214.22 -11.82 L 214.22 -4.28 C 214.22 -2.83 213.67 -2.3 212.24 -2.3 C 210.77 -2.3 210.24 -2.85 210.24 -4.28 Z M 254.77 -4.28 L 254.77 -16.1 L 252.24 -16.1 L 252.24 -4.28 C 252.24 -2.81 251.69 -2.3 250.24 -2.3 C 248.79 -2.3 248.26 -2.85 248.26 -4.28 L 248.26 -5.43 L 245.73 -5.43 L 245.73 -4.28 C 245.73 -1.66 247.53 0.23 250.24 0.23 C 252.86 0.23 254.77 -1.52 254.77 -4.28 Z M 267.47 -11.82 L 267.47 -4.28 C 267.47 -1.66 269.26 0.23 272 0.23 C 274.62 0.23 276.51 -1.56 276.51 -4.28 L 276.51 -11.82 C 276.51 -14.44 274.71 -16.33 272 -16.33 C 269.38 -16.33 267.47 -14.58 267.47 -11.82 Z M 270 -4.28 L 270 -11.82 C 270 -13.29 270.55 -13.8 272 -13.8 C 273.45 -13.8 273.98 -13.25 273.98 -11.82 L 273.98 -4.28 C 273.98 -2.83 273.42 -2.3 272 -2.3 C 270.53 -2.3 270 -2.85 270 -4.28 Z M 289.8 -16.1 L 289.8 -4.28 C 289.8 -1.66 291.59 0.23 294.33 0.23 C 296.95 0.23 298.84 -1.56 298.84 -4.28 L 298.84 -16.1 L 296.31 -16.1 L 296.31 -4.28 C 296.31 -2.83 295.76 -2.3 294.33 -2.3 C 292.86 -2.3 292.33 -2.85 292.33 -4.28 L 292.33 -16.1 Z M 316.85 -16.1 L 312.34 -16.1 L 312.34 0 L 314.87 0 L 314.87 -7.04 L 316.85 -7.04 C 318.3 -7.04 318.85 -6.51 318.85 -5.04 L 318.85 0 L 321.38 0 L 321.38 -5.04 C 321.38 -6.39 320.92 -7.52 320.11 -8.3 C 320.92 -9.11 321.38 -10.26 321.38 -11.57 C 321.38 -14.31 319.49 -16.1 316.85 -16.1 Z M 314.87 -9.57 L 314.87 -13.57 L 316.85 -13.57 C 318.3 -13.57 318.85 -13.04 318.85 -11.57 C 318.85 -10.14 318.3 -9.57 316.85 -9.57 Z M 334.79 -16.1 L 334.79 0 L 337.32 0 L 337.32 -9.52 L 341.3 0 L 343.83 0 L 343.83 -16.1 L 341.3 -16.1 L 341.3 -6.05 L 337.09 -16.1 Z M 357.51 -16.1 L 357.51 0 L 365.1 0 L 365.1 -2.53 L 360.04 -2.53 L 360.04 -7.01 L 364.64 -7.01 L 364.64 -9.54 L 360.04 -9.54 L 360.04 -13.57 L 365.1 -13.57 L 365.1 -16.1 Z M 380.95 -6.67 L 380.95 0 L 383.48 0 L 383.48 -6.67 L 386.7 -16.1 L 383.94 -16.1 L 382.21 -9.66 L 380.49 -16.1 L 377.73 -16.1 Z M 421.84 -11.82 L 421.84 -10.67 L 424.37 -10.67 L 424.37 -11.82 C 424.37 -14.56 422.51 -16.33 419.87 -16.33 C 417.11 -16.33 415.33 -14.47 415.33 -11.82 C 415.33 -9.29 417.43 -8.07 419.01 -7.15 C 420.72 -6.16 421.84 -5.54 421.84 -4.28 C 421.84 -2.81 421.31 -2.3 419.87 -2.3 C 418.37 -2.3 417.86 -2.83 417.86 -4.28 L 417.86 -5.43 L 415.33 -5.43 L 415.33 -4.28 C 415.33 -1.63 417.11 0.23 419.87 0.23 C 422.51 0.23 424.37 -1.54 424.37 -4.28 C 424.37 -7.06 421.98 -8.35 420.3 -9.36 C 418.74 -10.23 417.86 -10.76 417.86 -11.82 C 417.86 -13.27 418.37 -13.8 419.87 -13.8 C 421.31 -13.8 421.84 -13.29 421.84 -11.82 Z M 445.63 -16.1 L 436.66 -16.1 L 436.66 -13.57 L 439.88 -13.57 L 439.88 0 L 442.41 0 L 442.41 -13.57 L 445.63 -13.57 Z M 459.36 -16.1 L 456.6 0 L 459.13 0 L 459.4 -1.61 L 462.83 -1.61 L 463.11 0 L 465.64 0 L 462.88 -16.1 Z M 459.84 -4.14 L 461.13 -11.62 L 462.39 -4.14 Z M 483.28 -16.1 L 478.77 -16.1 L 478.77 0 L 481.3 0 L 481.3 -7.04 L 483.28 -7.04 C 484.73 -7.04 485.28 -6.51 485.28 -5.04 L 485.28 0 L 487.81 0 L 487.81 -5.04 C 487.81 -6.39 487.35 -7.52 486.54 -8.3 C 487.35 -9.11 487.81 -10.26 487.81 -11.57 C 487.81 -14.31 485.92 -16.1 483.28 -16.1 Z M 481.3 -9.57 L 481.3 -13.57 L 483.28 -13.57 C 484.73 -13.57 485.28 -13.04 485.28 -11.57 C 485.28 -10.14 484.73 -9.57 483.28 -9.57 Z M 508.83 -16.1 L 499.86 -16.1 L 499.86 -13.57 L 503.08 -13.57 L 503.08 0 L 505.61 0 L 505.61 -13.57 L 508.83 -13.57 Z M 527.44 -11.82 L 527.44 -10.67 L 529.97 -10.67 L 529.97 -11.82 C 529.97 -14.56 528.1 -16.33 525.46 -16.33 C 522.7 -16.33 520.93 -14.47 520.93 -11.82 C 520.93 -9.29 523.02 -8.07 524.61 -7.15 C 526.31 -6.16 527.44 -5.54 527.44 -4.28 C 527.44 -2.81 526.91 -2.3 525.46 -2.3 C 523.96 -2.3 523.46 -2.83 523.46 -4.28 L 523.46 -5.43 L 520.93 -5.43 L 520.93 -4.28 C 520.93 -1.63 522.7 0.23 525.46 0.23 C 528.1 0.23 529.97 -1.54 529.97 -4.28 C 529.97 -7.06 527.57 -8.35 525.9 -9.36 C 524.33 -10.23 523.46 -10.76 523.46 -11.82 C 523.46 -13.27 523.96 -13.8 525.46 -13.8 C 526.91 -13.8 527.44 -13.29 527.44 -11.82 Z M 559.54 -16.1 L 559.54 0 L 562.07 0 L 562.07 -7.01 L 566.05 -7.01 L 566.05 0 L 568.58 0 L 568.58 -16.1 L 566.05 -16.1 L 566.05 -9.54 L 562.07 -9.54 L 562.07 -16.1 Z M 582.15 -16.1 L 582.15 0 L 589.74 0 L 589.74 -2.53 L 584.68 -2.53 L 584.68 -7.01 L 589.28 -7.01 L 589.28 -9.54 L 584.68 -9.54 L 584.68 -13.57 L 589.74 -13.57 L 589.74 -16.1 Z M 607.98 -16.1 L 603.47 -16.1 L 603.47 0 L 606 0 L 606 -7.04 L 607.98 -7.04 C 609.43 -7.04 609.98 -6.51 609.98 -5.04 L 609.98 0 L 612.51 0 L 612.51 -5.04 C 612.51 -6.39 612.05 -7.52 611.25 -8.3 C 612.05 -9.11 612.51 -10.26 612.51 -11.57 C 612.51 -14.31 610.63 -16.1 607.98 -16.1 Z M 606 -9.57 L 606 -13.57 L 607.98 -13.57 C 609.43 -13.57 609.98 -13.04 609.98 -11.57 C 609.98 -10.14 609.43 -9.57 607.98 -9.57 Z M 625.92 -16.1 L 625.92 0 L 633.51 0 L 633.51 -2.53 L 628.45 -2.53 L 628.45 -7.01 L 633.05 -7.01 L 633.05 -9.54 L 628.45 -9.54 L 628.45 -13.57 L 633.51 -13.57 L 633.51 -16.1 Z" stroke-linecap="round" />
</g>
</g>
</g>
</svg>